<?xml version="1.0" encoding="utf-8"?>
<?xml-stylesheet type="text/xsl" href="rss1.xsl"?>
<rss version="2.0" xmlns:atom="http://www.w3.org/2005/Atom" xmlns:content="http://purl.org/rss/1.0/modules/content/" xmlns:dc="http://purl.org/dc/elements/1.1/" xmlns:media="http://search.yahoo.com/mrss/">
<channel>
 <title>Getty</title>
 <link>http://www.gettyimg.com/</link>
 <atom:link href="http://www.gettyimg.com/" rel="self" type="application/rss+xml" />

 
                <item>
                <title><![CDATA[【Requests】[REQ AUD] - Albums &amp; Singles (TIDAL) Thanks to anyone who can help]]></title>
                <link><![CDATA[https://sharemania.us/threads/albums-singles-tidal-thanks-to-anyone-who-can-help.222853/]]></link>
                <description><![CDATA[<article>
<blockquote class="messageText SelectQuoteContainer ugc baseHtml">
The Chainsmokers - <b>Self Destruction Mode</b><br>
<a href="https://tidal.com/browse/album/297390479" target="_blank" class="externalLink" rel="nofollow">https://tidal.com/browse/album/297390479</a><br>
<br>
The Chainsmokers - Lofi Remixes<br>
<a href="https://tidal.com/browse/album/254563029" target="_blank" class="externalLink" rel="nofollow">https://tidal.com/browse/album/254563029</a><br>
<br>
The Chainsmokers - Takeaway Remixes<br>
<a href="https://tidal.com/browse/album/121192121" target="_blank" class="externalLink" rel="nofollow">https://tidal.com/browse/album/121192121</a><br>
<br>
Martin Garrix + Hurricane<br>
<a href="https://tidal.com/browse/album/296892434" target="_blank" class="externalLink" rel="nofollow">https://tidal.com/browse/album/296892434</a><br>
<br>
Martin Garrix presents STMPD RCRDS Vol. 001<br>
<a href="https://tidal.com/browse/album/155808178" target="_blank" class="externalLink" rel="nofollow">https://tidal.com/browse/album/155808178</a><br>
<br>
The Martin Garrix China Ultimate Collection<br>
<a href="https://tidal.com/browse/album/72759681" target="_blank" class="externalLink" rel="nofollow">https://tidal.com/browse/album/72759681</a><br>
<br>
Cmc$ - X's<br>
<a href="https://tidal.com/browse/track/94838944" target="_blank" class="externalLink" rel="nofollow">https://tidal.com/browse/track/94838944</a><br>
<br>
Thanks in advance. ❤️
<div class="messageTextEndMarker">&nbsp;</div>
</blockquote>
</article>]]></description>
                <author><![CDATA[Piperpilar]]></author>
                </item>

                
                <item>
                <title><![CDATA[【Apple Music】WEB-RiP - Ece Seçkin - Vazgeçtim (feat. Ozan Doğulu) (Apple Music 818p-stargamer)]]></title>
                <link><![CDATA[https://sharemania.us/threads/ece-se%C3%A7kin-vazge%C3%A7tim-feat-ozan-do%C4%9Fulu-apple-music-818p-stargamer.222847/]]></link>
                <description><![CDATA[<article>
<blockquote class="messageText SelectQuoteContainer ugc baseHtml">
<a href="https://ibb.co/9sCR45R" target="_blank" class="externalLink" rel="nofollow"><img src="https://i.ibb.co/3BLtFZt/Ece-Se-kin-Vazge-tim-feat-Ozan-Do-ulu-Apple-Music-818p-stargamer-m4v.jpg" class="bbCodeImage LbImage" alt="[​IMG]" data-url="https://i.ibb.co/3BLtFZt/Ece-Se-kin-Vazge-tim-feat-Ozan-Do-ulu-Apple-Music-818p-stargamer-m4v.jpg"></a><br>
<br>
download:<br>
<div class="bbCodeBlock bbCodeVfcHH HiddenContent">
<div class="attribution type">Hidden Content:</div>
<blockquote>You must either reply or click 'Like' to see the hidden information contained here.</blockquote>
</div>media info:<br>
<div class="bbCodeBlock bbCodeVfcHH HiddenContent">
<div class="attribution type">Hidden Content:</div>
<blockquote>You must either reply or click 'Like' to see the hidden information contained here.</blockquote>
</div>
<div class="messageTextEndMarker">&nbsp;</div>
</blockquote>
</article>]]></description>
                <author><![CDATA[stargamer]]></author>
                </item>

                
                <item>
                <title><![CDATA[【Apple Music】WEB-RiP - Ece Seçkin - Adeyyo (Apple Music 972p-stargamer)]]></title>
                <link><![CDATA[https://sharemania.us/threads/ece-se%C3%A7kin-adeyyo-apple-music-972p-stargamer.222845/]]></link>
                <description><![CDATA[<article>
<blockquote class="messageText SelectQuoteContainer ugc baseHtml">
<a href="https://ibb.co/TMQLYW5" target="_blank" class="externalLink" rel="nofollow"><img src="https://i.ibb.co/GQZTnHj/Ece-Se-kin-Adeyyo-Apple-Music-972p-stargamer-m4v.jpg" class="bbCodeImage LbImage" alt="[​IMG]" data-url="https://i.ibb.co/GQZTnHj/Ece-Se-kin-Adeyyo-Apple-Music-972p-stargamer-m4v.jpg"></a><br>
<br>
download:<br>
<div class="bbCodeBlock bbCodeVfcHH HiddenContent">
<div class="attribution type">Hidden Content:</div>
<blockquote>You must either reply or click 'Like' to see the hidden information contained here.</blockquote>
</div>media info:<br>
<div class="bbCodeBlock bbCodeVfcHH HiddenContent">
<div class="attribution type">Hidden Content:</div>
<blockquote>You must either reply or click 'Like' to see the hidden information contained here.</blockquote>
</div>
<div class="messageTextEndMarker">&nbsp;</div>
</blockquote>
</article>]]></description>
                <author><![CDATA[stargamer]]></author>
                </item>

                
                <item>
                <title><![CDATA[【Apple Music】WEB-RiP - Cooper &amp; Astrid S - Sing It With Me (1080p)]]></title>
                <link><![CDATA[https://sharemania.us/threads/cooper-astrid-s-sing-it-with-me-1080p.222852/]]></link>
                <description><![CDATA[<article>
<blockquote class="messageText SelectQuoteContainer ugc baseHtml">
<img src="https://i.imgur.com/0wXqafa.jpg" class="bbCodeImage LbImage" alt="[​IMG]" data-url="https://i.imgur.com/0wXqafa.jpg" style=""><br>
<br>
<div class="bbCodeBlock bbCodeCode">
<div class="type">Code:</div>
<pre>General
Complete name                  : C:\Users\asus\Desktop\Cooper &amp; Astrid S - Sing It With Me.mp4
Format                         : MPEG-4
Format profile                 : Base Media
Codec ID                       : isom (isom/iso2/avc1/mp41)
File size                      : 262 MiB
Duration                       : 3 min 46 s
Overall bit rate               : 9 712 kb/s
Frame rate                     : 25.000 FPS
Movie name                     : Sing It With Me
Performer                      : JP Cooper &amp; Astrid S
Genre                          : Singer/Songwriter
ContentType                    : Music Video
Recorded date                  : 2019-05-30 07:00:00 UTC
Writing application            : Lavf57.29.101
Copyright                      : ℗ 2019 Universal Music Operations Limited

Video
ID                             : 1
Format                         : AVC
Format/Info                    : Advanced Video Codec
Format profile                 : High@L4.1
Format settings                : CABAC / 4 Ref Frames
Format settings, CABAC         : Yes
Format settings, Reference fra : 4 frames
Codec ID                       : avc1
Codec ID/Info                  : Advanced Video Coding
Duration                       : 3 min 46 s
Bit rate                       : 9 466 kb/s
Width                          : 1 912 pixels
Height                         : 1 072 pixels
Display aspect ratio           : 16:9
Frame rate mode                : Constant
Frame rate                     : 25.000 FPS
Color space                    : YUV
Chroma subsampling             : 4:2:0
Bit depth                      : 8 bits
Scan type                      : Progressive
Bits/(Pixel*Frame)             : 0.185
Stream size                    : 255 MiB (97%)
Color range                    : Limited
Color primaries                : BT.709
Transfer characteristics       : BT.709
Matrix coefficients            : BT.709
Codec configuration box        : avcC

Audio
ID                             : 2
Format                         : AAC LC
Format/Info                    : Advanced Audio Codec Low Complexity
Codec ID                       : mp4a-40-2
Duration                       : 3 min 46 s
Bit rate mode                  : Constant
Bit rate                       : 244 kb/s
Channel(s)                     : 2 channels
Channel layout                 : L R
Sampling rate                  : 48.0 kHz
Frame rate                     : 46.875 FPS (1024 SPF)
Compression mode               : Lossy
Stream size                    : 6.56 MiB (3%)
Default                        : Yes
Alternate group                : 1

</pre>
</div>
<div class="bbCodeBlock bbCodeVfcHH HiddenContent">
<div class="attribution type">Hidden Content:</div>
<blockquote>You must either reply or click 'Like' to see the hidden information contained here.</blockquote>
</div>
<div class="messageTextEndMarker">&nbsp;</div>
</blockquote>
</article>]]></description>
                <author><![CDATA[vitalya3]]></author>
                </item>

                
                <item>
                <title><![CDATA[【Apple Music】WEB-RiP - Ece Seçkin - Follow Me (Apple Music 972p-stargamer)]]></title>
                <link><![CDATA[https://sharemania.us/threads/ece-se%C3%A7kin-follow-me-apple-music-972p-stargamer.222846/]]></link>
                <description><![CDATA[<article>
<blockquote class="messageText SelectQuoteContainer ugc baseHtml">
<a href="https://ibb.co/7KjN6cW" target="_blank" class="externalLink" rel="nofollow"><img src="https://i.ibb.co/DQzgSXC/Ece-Se-kin-Follow-Me-Apple-Music-972p-stargamer-m4v.jpg" class="bbCodeImage LbImage" alt="[​IMG]" data-url="https://i.ibb.co/DQzgSXC/Ece-Se-kin-Follow-Me-Apple-Music-972p-stargamer-m4v.jpg"></a><br>
<br>
download:<br>
<div class="bbCodeBlock bbCodeVfcHH HiddenContent">
<div class="attribution type">Hidden Content:</div>
<blockquote>You must either reply or click 'Like' to see the hidden information contained here.</blockquote>
</div>media info:<br>
<div class="bbCodeBlock bbCodeVfcHH HiddenContent">
<div class="attribution type">Hidden Content:</div>
<blockquote>You must either reply or click 'Like' to see the hidden information contained here.</blockquote>
</div>
<div class="messageTextEndMarker">&nbsp;</div>
</blockquote>
</article>]]></description>
                <author><![CDATA[stargamer]]></author>
                </item>

                
                <item>
                <title><![CDATA[【Apple Music】WEB-RiP - Rozz Kalliope &amp; Ece Seçkin - Benjamins 3 (Apple Music 954p-stargamer)]]></title>
                <link><![CDATA[https://sharemania.us/threads/rozz-kalliope-ece-se%C3%A7kin-benjamins-3-apple-music-954p-stargamer.222849/]]></link>
                <description><![CDATA[<article>
<blockquote class="messageText SelectQuoteContainer ugc baseHtml">
<a href="https://ibb.co/5cjWM4D" target="_blank" class="externalLink" rel="nofollow"><img src="https://i.ibb.co/RH6pvbn/Rozz-Kalliope-Ece-Se-kin-Benjamins-3-Apple-Music-954p-stargamer-m4v.jpg" class="bbCodeImage LbImage" alt="[​IMG]" data-url="https://i.ibb.co/RH6pvbn/Rozz-Kalliope-Ece-Se-kin-Benjamins-3-Apple-Music-954p-stargamer-m4v.jpg"></a><br>
<br>
download:<br>
<div class="bbCodeBlock bbCodeVfcHH HiddenContent">
<div class="attribution type">Hidden Content:</div>
<blockquote>You must either reply or click 'Like' to see the hidden information contained here.</blockquote>
</div>media info:<br>
<div class="bbCodeBlock bbCodeVfcHH HiddenContent">
<div class="attribution type">Hidden Content:</div>
<blockquote>You must either reply or click 'Like' to see the hidden information contained here.</blockquote>
</div>
<div class="messageTextEndMarker">&nbsp;</div>
</blockquote>
</article>]]></description>
                <author><![CDATA[stargamer]]></author>
                </item>

                
                <item>
                <title><![CDATA[【Apple Music】WEB-RiP - Astrid S -  Hurts So Good (1080p)]]></title>
                <link><![CDATA[https://sharemania.us/threads/astrid-s-hurts-so-good-1080p.222850/]]></link>
                <description><![CDATA[<article>
<blockquote class="messageText SelectQuoteContainer ugc baseHtml">
<img src="https://i.imgur.com/UldpgrV.jpg" class="bbCodeImage LbImage" alt="[​IMG]" data-url="https://i.imgur.com/UldpgrV.jpg" style=""><br>
<br>
<div class="bbCodeBlock bbCodeCode">
<div class="type">Code:</div>
<pre>General
Complete name                  : C:\Users\asus\Desktop\Astrid S -  Hurts So Good.mp4
Format                         : MPEG-4
Format profile                 : Base Media
Codec ID                       : isom (isom/iso2/avc1/mp41)
File size                      : 168 MiB
Duration                       : 3 min 25 s
Overall bit rate               : 6 854 kb/s
Frame rate                     : 25.000 FPS
Movie name                     : Hurts So Good
Album                          : Leave It Beautiful (Complete)
Album/Performer                : Astrid S
Part/Position                  : 1
Part/Total                     : 1
Track name/Position            : 21
Track name/Total               : 33
Performer                      : Astrid S
Genre                          : Pop
ContentType                    : Music Video
Recorded date                  : 2021-03-05 08:00:00 UTC
Writing application            : Lavf57.29.101
Copyright                      : ℗ 2016 Universal Music A/S

Video
ID                             : 1
Format                         : AVC
Format/Info                    : Advanced Video Codec
Format profile                 : High@L4
Format settings                : CABAC / 4 Ref Frames
Format settings, CABAC         : Yes
Format settings, Reference fra : 4 frames
Codec ID                       : avc1
Codec ID/Info                  : Advanced Video Coding
Duration                       : 3 min 25 s
Bit rate                       : 6 595 kb/s
Width                          : 1 912 pixels
Height                         : 1 072 pixels
Display aspect ratio           : 16:9
Frame rate mode                : Constant
Frame rate                     : 25.000 FPS
Color space                    : YUV
Chroma subsampling             : 4:2:0
Bit depth                      : 8 bits
Scan type                      : Progressive
Bits/(Pixel*Frame)             : 0.129
Stream size                    : 162 MiB (96%)
Language                       : English
Color range                    : Limited
Color primaries                : BT.709
Transfer characteristics       : BT.709
Matrix coefficients            : BT.709
Codec configuration box        : avcC

Audio
ID                             : 2
Format                         : AAC LC
Format/Info                    : Advanced Audio Codec Low Complexity
Codec ID                       : mp4a-40-2
Duration                       : 3 min 25 s
Bit rate mode                  : Constant
Bit rate                       : 255 kb/s
Channel(s)                     : 2 channels
Channel layout                 : L R
Sampling rate                  : 48.0 kHz
Frame rate                     : 46.875 FPS (1024 SPF)
Compression mode               : Lossy
Stream size                    : 6.24 MiB (4%)
Default                        : Yes
Alternate group                : 1

</pre>
</div>
<div class="bbCodeBlock bbCodeVfcHH HiddenContent">
<div class="attribution type">Hidden Content:</div>
<blockquote>You must either reply or click 'Like' to see the hidden information contained here.</blockquote>
</div>
<div class="messageTextEndMarker">&nbsp;</div>
</blockquote>
</article>]]></description>
                <author><![CDATA[vitalya3]]></author>
                </item>

                
                <item>
                <title><![CDATA[【OTHERS】Ariana Grande - Shut Up Full Studio Footage]]></title>
                <link><![CDATA[https://sharemania.us/threads/ariana-grande-shut-up-full-studio-footage.222851/]]></link>
                <description><![CDATA[<article>
<blockquote class="messageText SelectQuoteContainer ugc baseHtml">
<div style="text-align: center"><img src="http://imgfz.com/i/NRIWp9d.png" class="bbCodeImage LbImage" alt="[​IMG]" data-url="http://imgfz.com/i/NRIWp9d.png" style=""><br>
<br>
<img src="http://imgfz.com/i/xmGRn9i.png" class="bbCodeImage LbImage" alt="[​IMG]" data-url="http://imgfz.com/i/xmGRn9i.png" style=""><br>
<br>
<div class="ToggleTriggerAnchor bbCodeSpoilerContainer">
<button type="button" class="button bbCodeSpoilerButton ToggleTrigger Tooltip JsOnly" data-target="> .SpoilerTarget"><span>Spoiler: <span class="SpoilerTitle">MediaInfo</span></span></button>
<div class="SpoilerTarget bbCodeSpoilerText">
<div class="bbCodeBlock bbCodeCode">
<div class="type">Code:</div>
<pre>General

Format                         : MPEG-4
Format profile                 : QuickTime
Codec ID                       : qt   0000.00 (qt  )
File size                      : 278 MiB
Duration                       : 3 min 35 s
Overall bit rate mode          : Variable
Overall bit rate               : 10.8 Mb/s
Frame rate                     : 23.976 FPS
Movie name                     : shut up mmmmm yep episode
Description                    : This video is about shut up mmmmm yep episode
Encoded date                   : 2021-03-23 20:21:36 UTC
Tagged date                    : 2021-03-23 20:22:15 UTC
Writing library                : Apple QuickTime
com.apple.quicktime.keywords   : AG_Documentary,cinna_drive_03 avidfiles,200724
com.apple.quicktime.author     : Judy Flintstone
com.apple.quicktime.title      : shut up mmmmm yep episode

Video
ID                             : 2
Format                         : AVC
Format/Info                    : Advanced Video Codec
Format profile                 : High@L4
Format settings                : CABAC / 2 Ref Frames
Format settings, CABAC         : Yes
Format settings, Reference fra : 2 frames
Format settings, GOP           : M=2, N=12
Codec ID                       : avc1
Codec ID/Info                  : Advanced Video Coding
Duration                       : 3 min 35 s
Bit rate mode                  : Variable
Bit rate                       : 10.7 Mb/s
Maximum bit rate               : 768 kb/s
Width                          : 1 920 pixels
Height                         : 1 080 pixels
Display aspect ratio           : 16:9
Frame rate mode                : Constant
Frame rate                     : 23.976 (24000/1001) FPS
Color space                    : YUV
Chroma subsampling             : 4:2:0
Bit depth                      : 8 bits
Scan type                      : Progressive
Bits/(Pixel*Frame)             : 0.214
Stream size                    : 274 MiB (99%)
Title                          : Core Media Video
Encoded date                   : 2021-03-23 20:21:36 UTC
Tagged date                    : 2021-03-23 20:22:15 UTC
Color range                    : Limited
Color primaries                : BT.709
Transfer characteristics       : BT.709
Matrix coefficients            : BT.709
Codec configuration box        : avcC

Audio
ID                             : 1
Format                         : AAC LC
Format/Info                    : Advanced Audio Codec Low Complexity
Codec ID                       : mp4a-40-2
Duration                       : 3 min 35 s
Source duration                : 3 min 35 s
Bit rate mode                  : Constant
Bit rate                       : 105 kb/s
Nominal bit rate               : 128 kb/s
Channel(s)                     : 2 channels
Channel layout                 : L R
Sampling rate                  : 48.0 kHz
Frame rate                     : 46.875 FPS (1024 SPF)
Compression mode               : Lossy
Stream size                    : 2.69 MiB (1%)
Source stream size             : 2.69 MiB (1%)
Title                          : Core Media Audio
Encoded date                   : 2021-03-23 20:21:36 UTC
Tagged date                    : 2021-03-23 20:22:15 UTC

Other
ID                             : 3
Type                           : Time code
Format                         : QuickTime TC
Duration                       : 3 min 35 s
Frame rate                     : 23.976 (24000/1001) FPS
Time code of first frame       : 00:00:00:00
Time code of last frame        : 00:03:35:09
Time code, stripped            : Yes
Title                          : Core Media Time Code
Encoded date                   : 2021-03-23 20:21:36 UTC
Tagged date                    : 2021-03-23 20:22:15 UTC

</pre>
</div></div>
</div><br>
<div class="bbCodeBlock bbCodeVfcHH HiddenContent">
<div class="attribution type">Hidden Content:</div>
<blockquote>You must reply before you can see the hidden data contained here.</blockquote>
</div></div>
<div class="messageTextEndMarker">&nbsp;</div>
</blockquote>
</article>]]></description>
                <author><![CDATA[honeymooon]]></author>
                </item>

                
                <item>
                <title><![CDATA[【Apple Music】WEB-RiP - Havana - Perfect Kiss (feat. Yaar &amp; Kaiia) (1080p)]]></title>
                <link><![CDATA[https://sharemania.us/threads/havana-perfect-kiss-feat-yaar-kaiia-1080p.222854/]]></link>
                <description><![CDATA[<article>
<blockquote class="messageText SelectQuoteContainer ugc baseHtml">
<img src="https://i.imgur.com/AO2yKoq.jpg" class="bbCodeImage LbImage" alt="[​IMG]" data-url="https://i.imgur.com/AO2yKoq.jpg" style=""><br>
<br>
<div class="bbCodeBlock bbCodeCode">
<div class="type">Code:</div>
<pre>General
Complete name                  : C:\Users\asus\Desktop\Havana - Perfect Kiss (feat. Yaar &amp; Kaiia).mp4
Format                         : MPEG-4
Format profile                 : Base Media
Codec ID                       : isom (isom/iso2/avc1/mp41)
File size                      : 172 MiB
Duration                       : 3 min 32 s
Overall bit rate               : 6 780 kb/s
Frame rate                     : 25.000 FPS
Movie name                     : Perfect Kiss (feat. Yaar &amp; Kaiia)
Performer                      : Havana
Genre                          : Dance
ContentType                    : Music Video
Recorded date                  : 2021-08-24 07:00:00 UTC
Writing application            : Lavf57.29.101
Copyright                      : ℗ 2020 Cat Music

Video
ID                             : 1
Format                         : AVC
Format/Info                    : Advanced Video Codec
Format profile                 : High@L4
Format settings                : CABAC / 5 Ref Frames
Format settings, CABAC         : Yes
Format settings, Reference fra : 5 frames
Codec ID                       : avc1
Codec ID/Info                  : Advanced Video Coding
Duration                       : 3 min 32 s
Bit rate                       : 6 514 kb/s
Width                          : 1 920 pixels
Height                         : 864 pixels
Display aspect ratio           : 2.222
Frame rate mode                : Constant
Frame rate                     : 25.000 FPS
Color space                    : YUV
Chroma subsampling             : 4:2:0
Bit depth                      : 8 bits
Scan type                      : Progressive
Bits/(Pixel*Frame)             : 0.157
Stream size                    : 165 MiB (96%)
Color range                    : Limited
Color primaries                : BT.709
Transfer characteristics       : BT.709
Matrix coefficients            : BT.709
Codec configuration box        : avcC

Audio
ID                             : 2
Format                         : AAC LC
Format/Info                    : Advanced Audio Codec Low Complexity
Codec ID                       : mp4a-40-2
Duration                       : 3 min 32 s
Bit rate mode                  : Constant
Bit rate                       : 265 kb/s
Channel(s)                     : 2 channels
Channel layout                 : L R
Sampling rate                  : 48.0 kHz
Frame rate                     : 46.875 FPS (1024 SPF)
Compression mode               : Lossy
Stream size                    : 6.63 MiB (4%)
Default                        : Yes
Alternate group                : 1

</pre>
</div>
<div class="bbCodeBlock bbCodeVfcHH HiddenContent">
<div class="attribution type">Hidden Content:</div>
<blockquote>You must either reply or click 'Like' to see the hidden information contained here.</blockquote>
</div>
<div class="messageTextEndMarker">&nbsp;</div>
</blockquote>
</article>]]></description>
                <author><![CDATA[vitalya3]]></author>
                </item>

                
                <item>
                <title><![CDATA[【OTHERS】Ariana Grande - POV Full Studio Footage]]></title>
                <link><![CDATA[https://sharemania.us/threads/ariana-grande-pov-full-studio-footage.222848/]]></link>
                <description><![CDATA[<article>
<blockquote class="messageText SelectQuoteContainer ugc baseHtml">
<div style="text-align: center"><br>
<img src="http://imgfz.com/i/75sTowm.png" class="bbCodeImage LbImage" alt="[​IMG]" data-url="http://imgfz.com/i/75sTowm.png" style=""><br>
<br>
<img src="http://imgfz.com/i/CZgHuRs.png" class="bbCodeImage LbImage" alt="[​IMG]" data-url="http://imgfz.com/i/CZgHuRs.png" style=""><br>
<br>
<img src="http://imgfz.com/i/eIWCVzg.png" class="bbCodeImage LbImage" alt="[​IMG]" data-url="http://imgfz.com/i/eIWCVzg.png" style=""><br>
<br>
<div class="ToggleTriggerAnchor bbCodeSpoilerContainer">
<button type="button" class="button bbCodeSpoilerButton ToggleTrigger Tooltip JsOnly" data-target="> .SpoilerTarget"><span>Spoiler: <span class="SpoilerTitle">MediaInfo</span></span></button>
<div class="SpoilerTarget bbCodeSpoilerText">
<div class="bbCodeBlock bbCodeCode">
<div class="type">Code:</div>
<pre>General

Format                         : MPEG-4
Format profile                 : Base Media / Version 2
Codec ID                       : mp42 (mp42/mp41)
File size                      : 452 MiB
Duration                       : 6 min 15 s
Overall bit rate mode          : Variable
Overall bit rate               : 10.1 Mb/s
Frame rate                     : 23.976 FPS
Encoded date                   : 2021-05-10 19:13:21 UTC
Tagged date                    : 2021-05-10 19:18:05 UTC
TIM                            : 00:00:00:00
TSC                            : 24000
TSZ                            : 1001

Video
ID                             : 1
Format                         : AVC
Format/Info                    : Advanced Video Codec
Format profile                 : Main@L4.1
Format settings                : CABAC / 2 Ref Frames
Format settings, CABAC         : Yes
Format settings, Reference fra : 2 frames
Codec ID                       : avc1
Codec ID/Info                  : Advanced Video Coding
Duration                       : 6 min 15 s
Bit rate mode                  : Variable
Bit rate                       : 9 784 kb/s
Maximum bit rate               : 768 kb/s
Width                          : 1 920 pixels
Height                         : 1 080 pixels
Display aspect ratio           : 16:9
Frame rate mode                : Constant
Frame rate                     : 23.976 (24000/1001) FPS
Color space                    : YUV
Chroma subsampling             : 4:2:0
Bit depth                      : 8 bits
Scan type                      : Progressive
Bits/(Pixel*Frame)             : 0.197
Stream size                    : 438 MiB (97%)
Language                       : English
Encoded date                   : 2021-05-10 19:13:21 UTC
Tagged date                    : 2021-05-10 19:13:21 UTC
Color range                    : Limited
Color primaries                : BT.709
Transfer characteristics       : BT.709
Matrix coefficients            : BT.709
Codec configuration box        : avcC

Audio
ID                             : 2
Format                         : AAC LC
Format/Info                    : Advanced Audio Codec Low Complexity
Codec ID                       : mp4a-40-2
Duration                       : 6 min 15 s
Source duration                : 6 min 15 s
Bit rate mode                  : Variable
Bit rate                       : 317 kb/s
Maximum bit rate               : 420 kb/s
Channel(s)                     : 2 channels
Channel layout                 : L R
Sampling rate                  : 48.0 kHz
Frame rate                     : 46.875 FPS (1024 SPF)
Compression mode               : Lossy
Stream size                    : 14.2 MiB (3%)
Source stream size             : 14.2 MiB (3%)
Language                       : English
Encoded date                   : 2021-05-10 19:13:24 UTC
Tagged date                    : 2021-05-10 19:13:24 UTC</pre>
</div></div>
</div><br>
<div class="bbCodeBlock bbCodeVfcHH HiddenContent">
<div class="attribution type">Hidden Content:</div>
<blockquote>You must reply before you can see the hidden data contained here.</blockquote>
</div></div>
<div class="messageTextEndMarker">&nbsp;</div>
</blockquote>
</article>]]></description>
                <author><![CDATA[honeymooon]]></author>
                </item>

                </channel></rss>